<?xml version="1.0" standalone="no"?>
<!DOCTYPE svg PUBLIC "-//W3C//DTD SVG 20010904//EN"
 "http://www.w3.org/TR/2001/REC-SVG-20010904/DTD/svg10.dtd">
<svg version="1.0" xmlns="http://www.w3.org/2000/svg"
 width="500.000000pt" height="500.000000pt" viewBox="0 0 500.000000 500.000000"
 preserveAspectRatio="xMidYMid meet">
<metadata>
Created by potrace 1.14, written by Peter Selinger 2001-2017
</metadata>
<g transform="translate(0.000000,500.000000) scale(0.100000,-0.100000)"
fill="#000000" stroke="none">
<path d="M1279 4996 c-2 -2 -29 -7 -59 -10 -420 -50 -810 -309 -1030 -685 -78
-134 -147 -323 -165 -451 -4 -25 -11 -65 -15 -90 -5 -25 -9 -592 -9 -1260 1
-1273 1 -1273 44 -1448 120 -477 513 -876 990 -1002 172 -45 165 -45 1450 -45
671 0 1247 3 1280 7 346 40 652 204 900 481 121 135 229 342 286 548 47 170
48 190 47 1469 0 1135 -1 1211 -19 1315 -70 409 -307 761 -654 972 -134 81
-336 157 -470 177 -22 4 -65 10 -95 15 -51 9 -2472 15 -2481 7z"/>
</g>
</svg>
